# xmcd CD database file
#
# Track frame offsets:
#	150
#	17631
#	35868
#	49563
#	66818
#	81903
#	98004
#
# Disc length: 1500 seconds
#
# Revision: 0
# Processed by: cddbd v1.5.1PL2 Copyright (c) Steve Scherf et al.
# Submitted via: CDex 1.51
#
DISCID=5205da07
DTITLE=IN STEREO - Death Before EMO
DYEAR=2006
DGENRE=Rock
TTITLE0=WAKING UP
TTITLE1=ALWAYS AND FOREVER
TTITLE2=WHEN I COME UNDONE
TTITLE3=UNDERTOW
TTITLE4=HEY AMY
TTITLE5=IN THE END -bonus track for Japan-
TTITLE6=FASHION SHOW
EXTD=YEAR: 2006.01.20
EXTT0=
EXTT1=
EXTT2=
EXTT3=
EXTT4=
EXTT5=
EXTT6=
PLAYORDER=
